<?xml version="1.0" encoding="UTF-8"?>
<!DOCTYPE svg PUBLIC "-//W3C//DTD SVG 1.1//EN" "http://www.w3.org/Graphics/SVG/1.1/DTD/svg11.dtd">
<svg xmlns="http://www.w3.org/2000/svg" version="1.1" width="86px" height="197px" style="shape-rendering:geometricPrecision; text-rendering:geometricPrecision; image-rendering:optimizeQuality; fill-rule:evenodd; clip-rule:evenodd" xmlns:xlink="http://www.w3.org/1999/xlink">
<g><path style="opacity:1" fill="#fefdfd" d="M 59.5,-0.5 C 60.8333,-0.5 62.1667,-0.5 63.5,-0.5C 70.5548,17.8437 77.8882,35.8437 85.5,53.5C 85.5,94.1667 85.5,134.833 85.5,175.5C 84.1667,175.5 82.8333,175.5 81.5,175.5C 81.1814,173.25 81.6814,171.25 83,169.5C 83.6667,133.167 83.6667,96.8333 83,60.5C 80.1575,55.4812 76.8241,50.8145 73,46.5C 72.6667,93.5 72.3333,140.5 72,187.5C 64.1619,191.61 55.9952,194.61 47.5,196.5C 38.5,196.5 29.5,196.5 20.5,196.5C 13.1388,194.486 6.13878,191.486 -0.5,187.5C -0.5,138.5 -0.5,89.5 -0.5,40.5C 6.2115,38.2503 13.2115,36.9169 20.5,36.5C 22.2024,30.0413 22.8691,23.3746 22.5,16.5C 19.8333,16.5 17.1667,16.5 14.5,16.5C 14.5361,12.1756 15.8695,8.34226 18.5,5C 30.8333,4.66667 43.1667,4.33333 55.5,4C 57.0414,2.62879 58.3747,1.12879 59.5,-0.5 Z"/></g>
<g><path style="opacity:1" fill="#ce1c1b" d="M 69.5,146.5 C 58.1956,147.996 46.8623,149.33 35.5,150.5C 24.4469,149.491 13.4469,148.157 2.5,146.5C 2.5,111.5 2.5,76.5 2.5,41.5C 7.196,41.3294 11.8627,40.8294 16.5,40C 19.0075,39.9071 21.1741,39.0738 23,37.5C 25.4037,30.4141 26.0704,23.0807 25,15.5C 23.2111,13.771 21.0444,13.1043 18.5,13.5C 18.3573,11.7376 18.6906,10.0709 19.5,8.5C 31.8199,7.6674 44.1532,7.1674 56.5,7C 57.7657,5.01732 59.4324,4.01732 61.5,4C 68.2205,19.4885 74.3872,34.9885 80,50.5C 78.2854,48.2406 76.4521,46.0739 74.5,44C 72.6332,43.2888 71.1332,43.7888 70,45.5C 69.5,79.165 69.3333,112.832 69.5,146.5 Z"/></g>
<g><path style="opacity:1" fill="#c79c33" d="M 41.5,50.5 C 42.2389,50.369 42.9056,50.5357 43.5,51C 39.0778,61.1706 39.9112,71.0039 46,80.5C 50.3333,86.5 54.6667,92.5 59,98.5C 63.6193,109.193 63.6193,119.86 59,130.5C 56.1882,134.155 52.6882,136.821 48.5,138.5C 47.134,130.105 42.9673,123.438 36,118.5C 33.1553,113.925 31.8219,108.925 32,103.5C 24.4889,111.203 22.4889,120.203 26,130.5C 27.7932,133.295 29.9598,135.795 32.5,138C 23.7039,137.891 17.5372,133.725 14,125.5C 7.46499,105.701 9.79832,87.0345 21,69.5C 27.4287,62.5653 34.262,56.232 41.5,50.5 Z"/></g>
<g><path style="opacity:1" fill="#c79c34" d="M 2.5,146.5 C 13.4469,148.157 24.4469,149.491 35.5,150.5C 46.8623,149.33 58.1956,147.996 69.5,146.5C 68.1667,150.5 68.1667,154.5 69.5,158.5C 58.8088,159.762 48.1421,161.095 37.5,162.5C 25.8574,161.021 14.1907,159.688 2.5,158.5C 2.5,154.5 2.5,150.5 2.5,146.5 Z"/></g>
<g><path style="opacity:1" fill="#ce1c1b" d="M 2.5,158.5 C 14.1907,159.688 25.8574,161.021 37.5,162.5C 48.1421,161.095 58.8088,159.762 69.5,158.5C 69.8315,167.525 69.4982,176.525 68.5,185.5C 53.7339,193.054 38.0672,195.554 21.5,193C 15.244,191.526 9.244,189.359 3.5,186.5C 2.50169,177.19 2.16836,167.857 2.5,158.5 Z"/></g>
</svg>
