<?xml version="1.0" encoding="UTF-8"?>
<!DOCTYPE svg PUBLIC "-//W3C//DTD SVG 1.1//EN" "http://www.w3.org/Graphics/SVG/1.1/DTD/svg11.dtd">
<svg xmlns="http://www.w3.org/2000/svg" version="1.1" width="92px" height="202px" style="shape-rendering:geometricPrecision; text-rendering:geometricPrecision; image-rendering:optimizeQuality; fill-rule:evenodd; clip-rule:evenodd" xmlns:xlink="http://www.w3.org/1999/xlink">
<g><path style="opacity:0.964" fill="#fefefe" d="M 61.5,-0.5 C 64.1667,-0.5 66.8333,-0.5 69.5,-0.5C 77.4582,17.435 84.7915,35.435 91.5,53.5C 91.5,95.8333 91.5,138.167 91.5,180.5C 88.9272,181.555 86.2605,181.722 83.5,181C 82.0507,177.392 82.2174,173.892 84,170.5C 84.6667,135.5 84.6667,100.5 84,65.5C 82.6667,63.5 81.3333,61.5 80,59.5C 79.2584,92.7966 79.425,126.13 80.5,159.5C 79.7591,170.485 79.2591,181.485 79,192.5C 72.036,196.985 64.536,199.985 56.5,201.5C 44.1667,201.5 31.8333,201.5 19.5,201.5C 12.7123,199.95 6.54559,196.95 1,192.5C 0.830376,181.659 0.330376,170.992 -0.5,160.5C -0.5,157.167 -0.5,153.833 -0.5,150.5C 0.833333,116.833 0.833333,83.1667 -0.5,49.5C -0.5,47.5 -0.5,45.5 -0.5,43.5C 0.596413,41.8968 1.92975,40.3968 3.5,39C 9.50366,38.1185 15.5037,37.2852 21.5,36.5C 23.1074,32.059 23.7741,27.3923 23.5,22.5C 20.8806,22.7683 18.3806,22.435 16,21.5C 14.7826,15.1983 16.2826,9.69833 20.5,5C 32.8333,4.66667 45.1667,4.33333 57.5,4C 59.0414,2.62879 60.3747,1.12879 61.5,-0.5 Z"/></g>
<g><path style="opacity:1" fill="#7c7271" d="M 76.5,68.5 C 64.0666,66.9305 51.5666,65.9305 39,65.5C 27.1011,65.8734 15.2678,66.8734 3.5,68.5C 3.7988,61.1093 3.46546,53.776 2.5,46.5C 3.12794,44.7419 4.12794,43.2419 5.5,42C 11.8237,41.0251 18.157,40.1918 24.5,39.5C 26.2024,33.0413 26.8691,26.3746 26.5,19.5C 23.8333,19.5 21.1667,19.5 18.5,19.5C 18.5361,15.1756 19.8695,11.3423 22.5,8C 34.8333,7.66667 47.1667,7.33333 59.5,7C 61.3663,3.94573 64.033,2.44573 67.5,2.5C 74.7988,20.0667 81.6322,37.7334 88,55.5C 88.5,96.4986 88.6667,137.499 88.5,178.5C 87.5,178.5 86.5,178.5 85.5,178.5C 85.1814,176.25 85.6814,174.25 87,172.5C 87.6667,136.167 87.6667,99.8333 87,63.5C 84.1575,58.4812 80.8241,53.8145 77,49.5C 76.5005,55.8246 76.3338,62.1579 76.5,68.5 Z"/></g>
<g><path style="opacity:1" fill="#c59c35" d="M 76.5,68.5 C 76.5,72.5 76.5,76.5 76.5,80.5C 70.1579,80.6662 63.8246,80.4995 57.5,80C 51.5084,78.5929 45.3418,77.7596 39,77.5C 27.1785,78.7767 15.3452,79.7767 3.5,80.5C 3.5,76.5 3.5,72.5 3.5,68.5C 15.2678,66.8734 27.1011,65.8734 39,65.5C 51.5666,65.9305 64.0666,66.9305 76.5,68.5 Z"/></g>
<g><path style="opacity:1" fill="#7c7271" d="M 76.5,80.5 C 76.5,106.167 76.5,131.833 76.5,157.5C 64.6548,158.223 52.8215,159.223 41,160.5C 34.6582,160.24 28.4916,159.407 22.5,158C 16.1754,157.5 9.84209,157.334 3.5,157.5C 3.5,131.833 3.5,106.167 3.5,80.5C 15.3452,79.7767 27.1785,78.7767 39,77.5C 45.3418,77.7596 51.5084,78.5929 57.5,80C 63.8246,80.4995 70.1579,80.6662 76.5,80.5 Z"/></g>
<g><path style="opacity:1" fill="#c59c35" d="M 3.5,157.5 C 9.84209,157.334 16.1754,157.5 22.5,158C 28.4916,159.407 34.6582,160.24 41,160.5C 52.8215,159.223 64.6548,158.223 76.5,157.5C 76.5,161.5 76.5,165.5 76.5,169.5C 64.7322,171.127 52.8989,172.127 41,172.5C 28.4334,172.069 15.9334,171.069 3.5,169.5C 3.5,165.5 3.5,161.5 3.5,157.5 Z"/></g>
<g><path style="opacity:1" fill="#7c7271" d="M 3.5,169.5 C 15.9334,171.069 28.4334,172.069 41,172.5C 52.8989,172.127 64.7322,171.127 76.5,169.5C 76.8132,176.755 76.4799,183.921 75.5,191C 63.8042,197.201 51.3042,199.701 38,198.5C 25.6024,200.066 14.2691,197.4 4,190.5C 3.50038,183.508 3.33371,176.508 3.5,169.5 Z"/></g>
</svg>
