<svg id="visual" viewBox="0 0 1920 1080" width="1920" height="1080" xmlns="http://www.w3.org/2000/svg" xmlns:xlink="http://www.w3.org/1999/xlink" version="1.1"><rect x="0" y="0" width="1920" height="1080" fill="#0a1c45"></rect><path d="M0 680L45.7 709.5C91.3 739 182.7 798 274.2 833.7C365.7 869.3 457.3 881.7 548.8 854C640.3 826.3 731.7 758.7 823 725.8C914.3 693 1005.7 695 1097 705.3C1188.3 715.7 1279.7 734.3 1371.2 758.8C1462.7 783.3 1554.3 813.7 1645.8 814.7C1737.3 815.7 1828.7 787.3 1874.3 773.2L1920 759L1920 1081L1874.3 1081C1828.7 1081 1737.3 1081 1645.8 1081C1554.3 1081 1462.7 1081 1371.2 1081C1279.7 1081 1188.3 1081 1097 1081C1005.7 1081 914.3 1081 823 1081C731.7 1081 640.3 1081 548.8 1081C457.3 1081 365.7 1081 274.2 1081C182.7 1081 91.3 1081 45.7 1081L0 1081Z" fill="#4D5E87" stroke-linecap="round" stroke-linejoin="miter"></path></svg>